<?xml version="1.0" standalone="no"?>
<!DOCTYPE svg PUBLIC "-//W3C//DTD SVG 20010904//EN" "http://www.w3.org/TR/2001/REC-SVG-20010904/DTD/svg10.dtd">
<svg version="1.0" xmlns="http://www.w3.org/2000/svg" width="506.000000pt" height="512.000000pt" viewBox="0 0 506.000000 512.000000" preserveAspectRatio="xMidYMid meet">

    <g transform="translate(0.000000,512.000000) scale(0.100000,-0.100000)" fill="#000000" stroke="none">
        <path d="M1293 5106 c-213 -52 -373 -254 -373 -471 0 -215 156 -415 365 -470
303 -78 605 156 605 470 0 130 -49 246 -146 342 -120 121 -288 168 -451 129z" />
        <path d="M915 4020 c-239 -48 -427 -303 -514 -697 -57 -253 -75 -499 -69 -908
6 -340 8 -358 66 -407 66 -55 142 -60 212 -14 70 46 73 64 66 360 -8 275 3
524 30 720 17 125 63 309 93 376 l20 45 0 -331 1 -332 -50 -32 c-46 -30 -50
-35 -50 -72 l0 -40 25 16 c78 50 48 77 263 -241 106 -157 192 -286 190 -287
-75 -54 -720 -487 -722 -484 -6 8 -144 210 -259 380 l-127 187 100 68 c100 68
114 86 91 122 -7 11 -39 -7 -144 -79 l-136 -93 216 -321 c119 -176 223 -329
232 -338 15 -15 28 -8 191 101 l175 118 5 -816 c5 -801 5 -817 26 -861 25 -55
72 -103 128 -133 32 -17 58 -22 116 -22 89 0 136 21 194 85 76 85 71 -1 74
1123 l2 1008 48 -3 47 -3 5 -1015 5 -1015 22 -41 c49 -92 158 -151 259 -141
99 10 167 58 217 151 l22 41 3 1728 c2 1636 3 1728 20 1723 9 -3 34 -8 55 -12
l37 -6 0 76 0 76 120 0 120 0 0 80 c0 75 -1 80 -22 84 -13 3 -71 12 -131 21
-59 9 -156 28 -215 41 -105 24 -115 24 -562 23 -250 -1 -473 -5 -495 -9z m589
-237 c9 -38 19 -76 22 -85 4 -12 -5 -24 -28 -38 -41 -26 -148 -24 -189 3 l-26
17 20 85 21 85 82 0 82 0 16 -67z m42 -588 c29 -209 55 -402 58 -430 l7 -50
-101 -127 c-56 -71 -103 -128 -104 -128 -2 0 -48 58 -104 128 l-101 129 54
399 c30 219 57 413 60 429 l5 30 87 0 88 -1 51 -379z" />
        <path d="M3205 3970 c-59 -17 -247 -40 -385 -47 l-140 -6 0 -69 0 -68 214 0
213 0 5 -45 c19 -164 222 -214 314 -77 60 88 36 233 -48 295 -31 23 -123 32
-173 17z" />
        <path d="M2380 3845 l0 -105 -120 0 -120 0 0 -130 0 -130 120 0 120 0 0 -1705
0 -1705 130 0 130 0 0 1705 0 1705 1210 0 1210 0 0 130 0 130 -779 0 -779 0
-11 -46 c-17 -67 -79 -130 -148 -150 -65 -19 -110 -13 -170 22 -51 29 -91 85
-99 137 l-7 37 -213 0 -214 0 0 105 0 105 -130 0 -130 0 0 -105z" />
        <path d="M3010 3380 l0 -60 -110 0 -110 0 0 -730 0 -730 1045 0 1045 0 0 730
0 730 -175 0 -175 0 0 60 0 60 -70 0 -70 0 0 -60 0 -60 -620 0 -620 0 0 60 0
60 -70 0 -70 0 0 -60z m1780 -795 l0 -645 -955 0 -955 0 0 645 0 645 955 0
955 0 0 -645z" />
        <path d="M3761 2970 c-18 -5 -45 -20 -60 -34 -23 -23 -26 -35 -26 -90 0 -54 4
-68 24 -90 51 -54 151 -54 201 -1 28 30 38 116 18 154 -27 51 -91 75 -157 61z
m67 -66 c42 -29 22 -134 -26 -134 -51 0 -74 103 -30 134 12 9 25 16 28 16 3 0
16 -7 28 -16z" />
        <path d="M3440 2845 l0 -125 40 0 40 0 0 50 0 50 50 0 c47 0 50 2 50 25 0 23
-3 25 -50 25 -47 0 -50 2 -50 25 0 24 3 25 60 25 57 0 60 1 60 25 l0 25 -100
0 -100 0 0 -125z" />
        <path d="M3970 2845 l0 -125 40 0 40 0 0 50 c0 66 20 66 57 0 27 -48 30 -50
71 -50 l42 0 -25 50 c-14 28 -30 50 -37 50 -6 0 1 11 16 25 18 17 26 34 26 59
0 54 -26 66 -137 66 l-93 0 0 -125z m145 50 c0 -15 -8 -21 -32 -23 -30 -3 -33
-1 -33 23 0 24 3 26 33 23 24 -2 32 -8 32 -23z" />
        <path d="M3060 2415 l0 -185 60 0 60 0 0 75 c0 58 3 75 14 75 19 0 45 -35 75
-98 l24 -52 69 0 69 0 -32 58 c-17 31 -42 68 -55 81 l-22 24 31 21 c61 41 59
139 -4 171 -20 11 -64 15 -159 15 l-130 0 0 -185z m201 105 c44 -24 11 -70
-50 -70 -29 0 -31 2 -31 40 0 38 2 40 31 40 17 0 39 -5 50 -10z" />
        <path d="M3470 2415 l0 -185 155 0 155 0 0 40 0 40 -100 0 -100 0 0 40 0 40
90 0 90 0 0 35 0 35 -90 0 -90 0 0 30 0 29 98 3 97 3 3 38 3 37 -155 0 -156 0
0 -185z" />
        <path d="M3850 2415 l0 -185 50 0 49 0 3 101 3 101 69 -101 69 -101 53 0 54 0
0 185 0 185 -55 0 -54 0 -3 -96 -3 -96 -65 96 -64 96 -53 0 -53 0 0 -185z" />
        <path d="M4250 2555 l0 -45 60 0 60 0 0 -140 0 -140 60 0 60 0 0 140 0 140 60
0 60 0 0 45 0 45 -180 0 -180 0 0 -45z" />
        <path d="M742 2528 c-9 -12 48 -100 210 -328 16 -22 20 -23 33 -9 14 14 3 33
-101 182 -64 92 -120 167 -124 167 -4 0 -12 -6 -18 -12z" />
        <path d="M720 2249 c0 -25 12 -53 41 -95 55 -78 56 -79 74 -64 13 11 8 22 -41
94 -74 106 -74 106 -74 65z" />
    </g>
</svg>