<?xml version="1.0" standalone="no"?>
<!DOCTYPE svg PUBLIC "-//W3C//DTD SVG 20010904//EN"
 "http://www.w3.org/TR/2001/REC-SVG-20010904/DTD/svg10.dtd">
<svg version="1.0" xmlns="http://www.w3.org/2000/svg"
 width="332.000000pt" height="202.000000pt" viewBox="0 0 332.000000 202.000000"
 preserveAspectRatio="xMidYMid meet">

<g transform="translate(0.000000,202.000000) scale(0.100000,-0.100000)"
fill="#000000" stroke="none">
<path d="M814 1768 c-12 -5 -29 -26 -38 -45 -16 -33 -16 -37 1 -71 10 -20 29
-42 43 -49 20 -10 209 -12 871 -10 831 2 847 2 869 22 33 29 42 62 30 101 -23
68 32 64 -907 63 -555 0 -855 -4 -869 -11z"/>
<path d="M822 1115 c-61 -27 -73 -115 -21 -157 20 -17 77 -18 880 -18 l858 0
27 23 c21 18 27 32 27 65 0 48 -15 70 -60 89 -49 20 -1663 19 -1711 -2z"/>
<path d="M811 454 c-29 -21 -49 -68 -43 -100 2 -13 18 -35 34 -49 l30 -25 843
0 c487 0 854 4 868 9 31 12 60 72 51 106 -3 14 -20 36 -36 50 l-30 25 -847 0
c-766 0 -849 -2 -870 -16z"/>
</g>
</svg>
