<?xml version="1.0" standalone="no"?>
<!DOCTYPE svg PUBLIC "-//W3C//DTD SVG 20010904//EN"
 "http://www.w3.org/TR/2001/REC-SVG-20010904/DTD/svg10.dtd">
<svg version="1.0" xmlns="http://www.w3.org/2000/svg"
 width="347.000000pt" height="253.000000pt" viewBox="0 0 347.000000 253.000000"
 preserveAspectRatio="xMidYMid meet">

<g transform="translate(0.000000,253.000000) scale(0.100000,-0.100000)"
fill="#000000" stroke="none">
<path d="M1277 2312 c-12 -14 -17 -43 -19 -127 l-3 -110 -100 -5 c-150 -8
-217 -47 -269 -160 -21 -44 -21 -56 -21 -745 0 -793 -3 -765 78 -842 87 -84
21 -78 837 -78 l725 0 55 30 c66 36 114 101 130 179 7 36 10 264 8 737 l-3
684 -27 50 c-55 105 -130 145 -268 145 -71 0 -89 3 -94 16 -3 9 -6 60 -6 114
0 109 -10 130 -58 130 -52 0 -57 -10 -62 -137 l-5 -118 -395 0 -395 0 -5 115
c-3 63 -9 121 -13 128 -12 18 -71 15 -90 -6z m1239 -388 c41 -28 54 -65 54
-159 l0 -85 -790 0 -790 0 0 79 c0 91 9 122 46 156 l27 25 714 0 c646 0 716
-2 739 -16z m-1096 -524 l0 -150 -212 2 -213 3 -3 148 -3 147 216 0 215 0 0
-150z m590 0 l0 -150 -230 0 -230 0 0 150 0 150 230 0 230 0 0 -150z m558 3
l-3 -148 -212 -3 -213 -2 0 150 0 150 215 0 216 0 -3 -147z m-1157 -283 c5 0
9 -72 9 -165 l0 -165 -212 2 -213 3 -3 162 -2 163 192 2 c106 2 199 2 206 1 8
-2 18 -3 23 -3z m599 -165 l0 -165 -230 0 -230 0 0 164 c0 145 2 165 17 168 9
2 112 2 230 0 l213 -3 0 -164z m558 3 l-3 -163 -212 -3 -213 -2 0 165 0 165
215 0 215 0 -2 -162z m-1148 -438 l0 -150 -175 0 -175 0 -38 34 -37 34 -3 102
c-2 55 -1 107 2 115 4 13 40 15 216 15 l210 0 0 -150z m590 0 l0 -150 -230 0
-230 0 0 150 0 150 230 0 230 0 0 -150z m555 32 l0 -114 -37 -34 -38 -34 -175
0 -175 0 0 150 0 150 213 -2 212 -3 0 -113z"/>
</g>
</svg>
