<?xml version="1.0" standalone="no"?>
<!DOCTYPE svg PUBLIC "-//W3C//DTD SVG 20010904//EN"
 "http://www.w3.org/TR/2001/REC-SVG-20010904/DTD/svg10.dtd">
<svg version="1.0" xmlns="http://www.w3.org/2000/svg"
 width="376.000000pt" height="376.000000pt" viewBox="0 0 376.000000 376.000000"
 preserveAspectRatio="xMidYMid meet">

<g transform="translate(0.000000,376.000000) scale(0.100000,-0.100000)"
fill="rgb(0,0,0)" stroke="none">
<path d="M734 3359 c-18 -20 -19 -55 -22 -1073 -1 -578 0 -1066 3 -1084 3 -18
15 -42 26 -53 18 -18 39 -19 764 -19 732 0 745 0 765 20 20 20 20 33 20 1105
0 1072 0 1085 -20 1105 -20 20 -33 20 -768 20 -749 0 -749 0 -768 -21z m1315
-455 c12 -15 21 -33 21 -40 0 -28 -24 -63 -49 -74 -18 -7 -183 -10 -535 -8
l-508 3 -19 24 c-25 30 -24 62 2 95 l20 26 524 0 524 0 20 -26z m-2 -600 c20
-20 24 -31 19 -57 -13 -70 9 -67 -563 -67 l-514 0 -24 25 c-14 13 -25 36 -25
50 0 14 11 37 25 50 l24 25 516 0 516 0 26 -26z m-8 -591 c11 -10 24 -32 27
-50 5 -26 1 -37 -19 -57 l-26 -26 -516 0 -516 0 -24 25 c-14 13 -25 36 -25 50
0 14 11 37 25 50 l24 25 514 0 c476 0 516 -1 536 -17z"/>
<path d="M2448 3004 c-5 -4 -8 -424 -8 -933 0 -917 0 -925 -21 -968 -25 -51
-76 -96 -128 -112 -27 -8 -213 -11 -620 -11 l-581 0 0 -89 c0 -73 3 -93 19
-112 l19 -24 752 0 752 0 19 24 c18 23 19 55 19 1101 0 1260 15 1123 -127
1128 -48 2 -91 0 -95 -4z"/>
<path d="M2820 1708 c0 -907 -1 -924 -21 -968 -25 -56 -53 -86 -104 -113 -39
-22 -48 -22 -632 -25 l-593 -3 0 -89 c0 -145 -90 -130 788 -130 749 0 749 0
768 21 18 20 19 55 22 1073 2 578 0 1066 -3 1084 -11 60 -33 72 -135 72 l-90
0 0 -922z"/>
</g>
</svg>
