<?xml version="1.0" standalone="no"?>
<!DOCTYPE svg PUBLIC "-//W3C//DTD SVG 20010904//EN" "http://www.w3.org/TR/2001/REC-SVG-20010904/DTD/svg10.dtd">
<svg version="1.0" xmlns="http://www.w3.org/2000/svg" width="100.000000pt" height="400.000000pt" viewBox="0 0 242.000000 119.000000" preserveAspectRatio="xMidYMid meet">

    <g transform="translate(0.000000,119.000000) scale(0.100000,-0.100000)" fill="rgb(255,255,200)" stroke="none">
        <path d="M1720 940 c-47 -16 -159 -52 -249 -80 l-164 -52 -91 -96 c-50 -52
-108 -113 -128 -134 -21 -21 -38 -42 -38 -46 0 -4 26 -33 58 -65 l58 -57 66 0
67 0 89 93 c49 50 109 112 132 137 23 25 85 90 139 145 203 212 199 201 61
155z" />
        <path d="M1927 813 c3 -7 9 -13 14 -13 5 0 9 6 9 13 0 8 -6 14 -14 14 -8 0
-12 -6 -9 -14z" />
        <path d="M1963 793 c-15 -5 -10 -11 145 -179 114 -125 122 -136 122 -174 l0
-40 70 0 c39 0 70 3 70 6 0 9 -362 374 -380 384 -8 4 -20 5 -27 3z" />
        <path d="M2103 783 c-22 -8 -14 -38 17 -68 17 -16 30 -26 31 -22 0 4 1 21 1
37 0 17 -1 37 -1 45 -1 15 -23 19 -48 8z" />
        <path d="M620 644 c0 -3 44 -52 99 -107 199 -206 266 -279 273 -298 7 -18 20
-19 278 -19 258 0 271 1 278 19 4 11 87 101 186 201 98 100 176 183 173 186
-4 5 -139 -35 -339 -99 -26 -9 -65 -42 -135 -117 -54 -58 -111 -116 -127 -130
l-29 -24 -136 140 -136 141 -160 47 c-88 26 -170 52 -183 57 -26 10 -42 12
-42 3z" />
        <path d="M1940 577 c0 -6 67 -83 183 -209 l89 -97 -9 -86 c-5 -47 -7 -88 -4
-89 16 -9 163 -37 174 -33 6 2 -13 10 -43 17 -30 7 -69 18 -87 26 l-32 13 12
43 c12 41 15 43 56 48 l42 5 -184 183 c-163 161 -197 192 -197 179z" />
        <path d="M505 529 c-11 -11 -82 -82 -157 -157 -76 -74 -138 -140 -138 -144 0
-5 8 -7 18 -4 10 4 25 0 34 -6 20 -16 41 -89 29 -101 -5 -5 -53 -19 -107 -32
-116 -27 -89 -32 41 -6 l90 18 -3 94 -3 94 83 90 c97 105 153 175 141 175 -4
0 -17 -9 -28 -21z" />
        <path d="M360 495 c0 -9 -8 -14 -22 -12 -21 2 -23 -3 -26 -53 l-3 -54 52 52
c33 33 49 57 45 67 -7 19 -46 20 -46 0z" />
        <path d="M574 355 c-4 -9 -2 -21 4 -27 15 -15 44 -1 40 19 -4 23 -36 29 -44 8z" />
        <path d="M644 355 c-7 -18 3 -35 21 -35 18 0 26 15 19 34 -8 20 -33 21 -40 1z" />
        <path d="M1840 340 c0 -13 7 -20 20 -20 13 0 20 7 20 20 0 13 -7 20 -20 20
-13 0 -20 -7 -20 -20z" />
        <path d="M1906 345 c-3 -9 1 -18 10 -22 19 -7 39 11 30 26 -10 16 -33 13 -40
-4z" />
        <path d="M576 291 c-10 -16 5 -42 23 -39 21 4 21 42 -1 46 -9 2 -19 -1 -22 -7z" />
        <path d="M644 285 c-7 -18 3 -35 21 -35 15 0 28 27 19 41 -8 14 -34 11 -40 -6z" />
        <path d="M1840 270 c0 -13 7 -20 20 -20 13 0 20 7 20 20 0 13 -7 20 -20 20
-13 0 -20 -7 -20 -20z" />
        <path d="M1906 275 c-6 -17 17 -31 34 -20 5 3 10 13 10 21 0 19 -36 18 -44 -1z" />
        <path d="M1120 99 c-295 -9 -499 -23 -720 -50 -276 -34 -235 -35 145 -4 375
30 764 40 1073 27 257 -11 484 -29 627 -48 28 -4 48 -4 45 -1 -10 11 -365 56
-520 66 -219 15 -369 17 -650 10z" />
    </g>
</svg>