<?xml version="1.0" standalone="no"?>
<!DOCTYPE svg PUBLIC "-//W3C//DTD SVG 20010904//EN"
 "http://www.w3.org/TR/2001/REC-SVG-20010904/DTD/svg10.dtd">
<svg version="1.0" xmlns="http://www.w3.org/2000/svg"
 width="186.000000pt" height="164.000000pt" viewBox="0 0 186.000000 164.000000"
 preserveAspectRatio="xMidYMid meet">

<g transform="translate(0.000000,164.000000) scale(0.100000,-0.100000)"
fill="#000000" stroke="none">
<path d="M0 820 l0 -820 930 0 930 0 0 820 0 820 -930 0 -930 0 0 -820z m1011
513 c25 -15 60 -69 72 -114 7 -24 96 -55 116 -40 33 23 67 33 105 28 102 -14
156 -125 106 -216 l-21 -36 21 -48 c12 -26 26 -47 32 -47 7 0 30 -9 53 -20
121 -58 97 -240 -36 -267 -25 -5 -35 -15 -51 -52 -19 -46 -19 -46 1 -87 40
-79 16 -158 -59 -197 -41 -21 -111 -18 -139 7 -10 9 -22 16 -28 16 -25 0 -103
-42 -103 -56 0 -29 -41 -94 -68 -108 -88 -46 -189 -3 -214 90 -7 24 -18 44
-26 44 -7 0 -27 7 -43 16 -28 14 -33 14 -75 -7 -83 -40 -178 -3 -202 79 -16
54 -15 72 8 110 21 35 26 67 11 77 -5 3 -12 18 -16 34 -5 23 -13 30 -43 35
-66 11 -112 71 -112 146 0 72 42 118 123 135 15 3 27 11 27 18 0 7 9 29 20 49
19 36 19 37 0 60 -45 58 -33 149 25 194 48 36 103 42 157 15 42 -20 47 -20 90
-5 40 13 47 20 52 49 8 39 49 93 80 105 36 15 106 11 137 -7z"/>
<path d="M864 1286 c-19 -19 -34 -44 -34 -57 0 -36 -10 -45 -79 -75 -51 -22
-66 -25 -80 -16 -9 7 -30 19 -47 27 -58 27 -133 -14 -150 -82 -7 -27 10 -75
36 -98 17 -15 17 -19 -13 -85 -28 -64 -33 -69 -73 -79 -48 -12 -94 -59 -94
-96 0 -62 41 -110 102 -120 23 -4 42 -14 45 -23 3 -10 16 -40 28 -68 l22 -50
-23 -28 c-33 -37 -38 -67 -21 -109 29 -69 120 -96 170 -49 30 28 31 28 111 -8
62 -29 66 -32 66 -64 0 -26 8 -41 35 -65 71 -62 166 -27 181 68 6 39 8 41 75
66 l68 26 31 -23 c46 -34 102 -31 140 8 44 43 49 89 15 138 l-26 38 27 68 c25
65 28 68 65 74 60 10 91 43 97 104 4 47 2 54 -26 82 -17 16 -39 30 -49 31 -23
1 -54 7 -57 11 -8 10 -56 122 -56 131 0 6 10 21 23 35 29 31 31 100 2 132 -45
51 -119 57 -167 13 -17 -15 -23 -15 -51 -4 -18 7 -48 19 -67 26 -28 11 -36 20
-41 47 -8 48 -25 76 -59 93 -49 25 -88 19 -126 -19z m-159 -575 c0 -44 -3 -74
-7 -68 -13 20 -8 147 6 147 0 0 1 -36 1 -79z m472 2 c-3 -10 -5 -2 -5 17 0 19
2 27 5 18 2 -10 2 -26 0 -35z m-187 -237 c8 -2 -13 -4 -47 -5 -35 0 -63 2 -63
7 0 7 76 5 110 -2z"/>
</g>
</svg>
