<?xml version="1.0" standalone="no"?>
<!DOCTYPE svg PUBLIC "-//W3C//DTD SVG 20010904//EN"
 "http://www.w3.org/TR/2001/REC-SVG-20010904/DTD/svg10.dtd">
<svg version="1.0" xmlns="http://www.w3.org/2000/svg"
 width="443.000000pt" height="295.000000pt" viewBox="0 0 443.000000 295.000000"
 preserveAspectRatio="xMidYMid meet">

<g transform="translate(0.000000,295.000000) scale(0.100000,-0.100000)"
fill="#000000" stroke="none">
<path d="M2330 2693 c-20 -8 -52 -33 -135 -107 -38 -35 -115 -102 -170 -151
-55 -48 -131 -116 -170 -150 -156 -138 -285 -252 -558 -493 -191 -168 -289
-261 -293 -278 -13 -50 55 -103 100 -77 8 4 47 37 87 73 40 36 80 71 91 78 17
13 18 -2 18 -455 0 -509 5 -561 55 -647 55 -94 149 -157 255 -173 30 -4 386
-6 790 -3 l735 5 57 28 c65 32 131 94 159 149 45 88 49 136 49 636 0 259 3
472 6 472 3 0 48 -38 99 -85 110 -99 141 -109 175 -52 11 17 20 39 20 47 0 17
-73 89 -235 230 -66 57 -122 107 -125 110 -3 3 -41 37 -85 75 -44 39 -123 108
-176 155 -52 47 -164 146 -249 220 -84 74 -215 190 -291 257 -163 144 -172
150 -209 136z m140 -268 c112 -100 159 -143 310 -275 85 -74 201 -178 260
-230 58 -52 129 -115 158 -139 l52 -44 0 -556 0 -556 -24 -51 c-49 -105 -104
-126 -331 -122 l-170 3 -5 400 c-5 439 -4 431 -67 472 -24 16 -56 18 -303 18
-306 0 -309 -1 -350 -68 -19 -30 -20 -53 -20 -430 l0 -398 -188 3 -189 3 -48
30 c-36 22 -57 45 -77 84 l-28 53 0 558 0 557 51 43 c43 36 259 227 594 525
39 34 112 99 164 144 l93 83 32 -29 c17 -16 56 -51 86 -78z m110 -1600 l0
-375 -227 2 -228 3 -3 360 c-1 198 0 366 3 372 3 10 58 13 230 13 l225 0 0
-375z"/>
</g>
</svg>
