<?xml version="1.0" standalone="no"?>
<!DOCTYPE svg PUBLIC "-//W3C//DTD SVG 20010904//EN"
 "http://www.w3.org/TR/2001/REC-SVG-20010904/DTD/svg10.dtd">
<svg version="1.0" xmlns="http://www.w3.org/2000/svg"
 width="337.000000pt" height="211.000000pt" viewBox="0 0 337.000000 211.000000"
 preserveAspectRatio="xMidYMid meet">
 <style type=""></style>
<g transform="translate(0.000000,211.000000) scale(0.100000,-0.100000)"
fill="rgb(0,0,0)" stroke="none">
<path d="M2070 2040 c-47 -16 -159 -52 -250 -81 -151 -48 -168 -55 -205 -94
-158 -164 -215 -226 -215 -234 0 -4 27 -33 59 -64 l60 -57 65 0 66 0 93 97
c50 53 151 158 223 232 180 188 219 231 203 230 -8 0 -52 -13 -99 -29z"/>
<path d="M2280 1921 c0 -6 5 -13 10 -16 6 -3 10 1 10 9 0 9 -4 16 -10 16 -5 0
-10 -4 -10 -9z"/>
<path d="M2317 1893 c-12 -11 16 -47 135 -175 110 -117 121 -132 126 -173 l5
-45 68 0 c38 0 69 3 69 6 0 10 -361 374 -381 384 -9 5 -19 7 -22 3z"/>
<path d="M2453 1883 c-22 -8 -14 -38 17 -68 17 -16 30 -26 31 -22 0 4 1 21 1
37 0 17 -1 37 -1 45 -1 15 -23 19 -48 8z"/>
<path d="M970 1743 c0 -5 12 -21 28 -34 61 -56 337 -352 344 -370 7 -18 22
-19 278 -19 257 0 271 1 278 19 4 10 87 100 185 200 97 99 177 183 177 187 0
3 -8 3 -17 0 -16 -4 -234 -71 -321 -98 -21 -6 -78 -56 -162 -141 l-131 -132
-132 138 -132 138 -94 30 c-78 25 -148 46 -283 86 -10 3 -18 1 -18 -4z"/>
<path d="M2290 1677 c0 -6 67 -83 183 -209 l88 -97 -6 -78 c-4 -43 -7 -82 -7
-88 0 -11 148 -47 172 -42 8 2 -10 9 -40 16 -30 8 -69 19 -87 27 l-32 13 12
43 c12 41 15 43 56 48 l42 5 -184 183 c-163 161 -197 192 -197 179z"/>
<path d="M865 1639 c-11 -17 1 -21 15 -4 8 9 8 15 2 15 -6 0 -14 -5 -17 -11z"/>
<path d="M710 1595 c0 -9 -8 -14 -22 -12 -21 2 -23 -3 -26 -53 l-3 -54 52 52
c33 33 49 57 45 67 -7 19 -46 20 -46 0z"/>
<path d="M696 1473 c-75 -75 -136 -140 -136 -145 0 -5 10 -6 23 -3 28 8 41 -6
56 -60 14 -51 9 -55 -110 -80 -52 -11 -85 -21 -74 -22 11 -2 63 5 115 15 l95
19 -4 91 -3 92 68 77 c125 138 137 153 120 153 -8 0 -76 -61 -150 -137z"/>
<path d="M926 1454 c-4 -10 -2 -22 3 -27 14 -14 43 0 39 20 -4 24 -34 28 -42
7z"/>
<path d="M994 1455 c-7 -18 3 -35 21 -35 18 0 26 15 19 34 -8 20 -33 21 -40 1z"/>
<path d="M2190 1440 c0 -13 7 -20 20 -20 13 0 20 7 20 20 0 13 -7 20 -20 20
-13 0 -20 -7 -20 -20z"/>
<path d="M2256 1445 c-3 -9 1 -18 10 -22 19 -7 39 11 30 26 -10 16 -33 13 -40
-4z"/>
<path d="M924 1385 c-4 -9 -2 -21 4 -27 15 -15 44 -1 40 19 -4 23 -36 29 -44
8z"/>
<path d="M994 1385 c-4 -9 -2 -21 4 -27 15 -15 44 -1 40 19 -4 23 -36 29 -44
8z"/>
<path d="M2190 1370 c0 -13 7 -20 20 -20 13 0 20 7 20 20 0 13 -7 20 -20 20
-13 0 -20 -7 -20 -20z"/>
<path d="M2256 1375 c-6 -17 17 -31 34 -20 5 3 10 13 10 21 0 19 -36 18 -44
-1z"/>
<path d="M1490 1198 c-311 -7 -512 -21 -740 -49 -276 -34 -244 -37 85 -9 394
34 826 46 1139 32 245 -11 483 -29 621 -48 28 -4 48 -4 45 -1 -10 10 -363 56
-520 67 -213 15 -323 16 -630 8z"/>
<path d="M34 977 c-2 -7 -3 -105 -2 -217 3 -190 4 -205 22 -208 31 -6 37 12
37 101 1 97 -2 94 85 89 l54 -4 0 -78 c0 -91 5 -110 31 -110 33 0 39 33 39
222 0 195 -6 224 -46 216 -17 -3 -19 -13 -22 -86 l-3 -82 -63 0 c-42 0 -65 4
-68 13 -3 6 -6 41 -7 76 -1 36 -4 68 -7 73 -8 13 -44 9 -50 -5z"/>
<path d="M450 971 c-5 -11 -25 -70 -43 -133 -78 -263 -78 -261 -44 -282 22
-14 32 0 48 62 l11 42 62 0 62 0 18 -56 c15 -47 21 -55 39 -52 16 2 23 11 25
34 3 31 -92 369 -110 392 -16 18 -56 14 -68 -7z m60 -170 l18 -71 -43 0 -43 0
8 33 c5 17 14 52 20 76 6 23 14 41 16 38 3 -3 14 -37 24 -76z"/>
<path d="M640 954 c0 -30 41 -201 79 -330 21 -74 51 -94 83 -56 21 24 102 317
102 372 1 41 -1 45 -23 45 -24 0 -27 -8 -65 -160 -22 -88 -42 -153 -45 -145
-3 8 -21 80 -41 160 -35 140 -37 145 -63 148 -25 3 -27 1 -27 -34z"/>
<path d="M972 978 c-13 -13 -18 -371 -6 -402 5 -13 25 -16 121 -16 l114 0 -3
33 -3 32 -85 3 -85 3 5 57 5 57 70 3 c82 4 104 22 69 56 -11 11 -35 16 -80 16
l-65 0 3 48 3 47 80 5 c75 5 80 6 83 29 2 13 -2 28 -10 32 -21 14 -202 11
-216 -3z"/>
<path d="M1261 971 c-14 -26 -15 -376 -1 -402 14 -24 36 -24 50 0 5 11 10 73
11 138 l0 118 67 -135 c52 -105 72 -136 89 -138 38 -6 44 24 41 235 l-3 198
-25 0 -25 0 -3 -132 c-1 -73 -6 -133 -10 -133 -4 0 -37 60 -72 133 -51 103
-70 133 -87 135 -14 2 -26 -4 -32 -17z"/>
<path d="M1730 963 c-25 -23 -32 -38 -36 -83 -6 -51 -4 -57 25 -86 17 -17 46
-37 64 -43 69 -26 82 -36 85 -68 4 -40 -21 -65 -62 -61 -25 2 -35 11 -51 43
-23 45 -33 55 -51 48 -32 -12 -13 -107 30 -142 23 -19 106 -25 136 -9 41 22
70 75 70 129 0 42 -5 53 -34 83 -19 19 -57 41 -86 51 -55 18 -75 46 -58 78 22
43 77 33 101 -18 23 -49 51 -44 55 8 3 30 -2 43 -27 67 -25 25 -37 30 -80 30
-41 0 -56 -5 -81 -27z"/>
<path d="M2008 979 c-16 -9 -18 -30 -18 -204 0 -106 3 -200 6 -209 8 -22 41
-20 54 3 5 11 10 49 10 85 l0 66 38 0 c47 0 103 28 119 60 16 32 17 121 1 155
-7 15 -24 33 -39 41 -32 16 -145 18 -171 3z m133 -69 c14 -8 19 -21 19 -50 0
-45 -26 -70 -72 -70 -28 0 -28 1 -28 65 l0 65 31 0 c17 0 39 -5 50 -10z"/>
<path d="M2291 972 c-18 -33 -15 -383 3 -408 12 -15 18 -17 33 -8 15 9 19 27
21 98 2 73 5 86 20 86 31 0 47 -19 87 -102 30 -63 45 -84 62 -86 36 -5 39 36
8 107 -15 33 -34 66 -41 72 -10 8 -6 18 21 45 31 30 35 41 35 85 0 28 -5 60
-12 72 -24 46 -38 52 -134 55 -84 4 -93 2 -103 -16z m160 -62 c22 -12 27 -68
7 -88 -7 -7 -34 -12 -60 -12 l-48 0 0 55 0 55 41 0 c22 0 49 -5 60 -10z"/>
<path d="M2606 975 c-3 -9 -6 -101 -6 -204 0 -147 3 -191 14 -207 12 -15 18
-17 33 -8 16 10 18 29 18 220 l0 209 -26 3 c-17 2 -29 -3 -33 -13z"/>
<path d="M2753 983 c-10 -3 -13 -56 -13 -213 0 -183 2 -209 16 -214 37 -14 44
11 44 147 0 72 2 128 5 125 3 -3 32 -60 65 -127 66 -138 75 -151 101 -151 30
0 40 43 35 144 -3 50 -5 137 -5 194 -1 102 -1 102 -26 102 -31 0 -34 -13 -38
-159 l-2 -114 -67 137 c-67 136 -76 145 -115 129z"/>
<path d="M3150 977 c-31 -16 -67 -69 -81 -121 -17 -62 -5 -178 23 -227 41 -74
129 -99 207 -60 57 30 62 40 59 128 l-3 78 -67 3 -68 3 0 -30 c0 -27 3 -30 38
-33 33 -3 37 -6 40 -35 4 -37 -26 -63 -73 -63 -65 1 -99 60 -93 166 4 94 26
128 86 132 38 3 43 1 67 -38 33 -52 59 -51 63 3 3 32 -2 43 -31 72 -31 31 -41
35 -88 35 -30 0 -65 -6 -79 -13z"/>
<path d="M1765 372 c-30 -6 -45 -22 -45 -48 0 -26 28 -48 73 -58 20 -5 27 -12
25 -24 -4 -22 -51 -28 -68 -8 -13 17 -40 22 -40 8 0 -4 7 -18 16 -30 34 -49
145 -14 128 41 -9 30 -14 35 -59 50 -46 16 -55 32 -24 42 15 5 26 2 34 -9 13
-16 45 -22 45 -8 0 28 -46 52 -85 44z"/>
<path d="M248 308 c-1 -35 -2 -74 -2 -88 -1 -16 5 -26 17 -28 14 -3 17 4 17
32 0 34 2 36 33 36 43 1 67 21 67 57 0 41 -17 53 -77 53 l-53 0 -2 -62z m96
16 c9 -23 -2 -34 -35 -34 -24 0 -29 4 -29 25 0 21 5 25 29 25 17 0 31 -6 35
-16z"/>
<path d="M417 363 c-4 -3 -7 -44 -7 -90 0 -76 2 -83 20 -83 17 0 20 7 20 40 0
28 4 40 14 40 8 0 29 -18 46 -40 28 -36 60 -53 60 -32 0 9 -30 55 -42 63 -5 3
1 14 12 24 22 20 26 55 8 73 -13 13 -120 17 -131 5z m106 -37 c8 -20 -2 -26
-40 -26 -26 0 -33 4 -33 20 0 16 7 20 34 20 20 0 36 -6 39 -14z"/>
<path d="M617 353 c-8 -10 -19 -30 -22 -45 -23 -92 72 -154 142 -94 24 21 28
31 27 72 -1 36 -6 52 -24 66 -29 24 -101 24 -123 1z m91 -19 c42 -29 21 -114
-28 -114 -49 0 -70 85 -28 114 12 9 25 16 28 16 3 0 16 -7 28 -16z"/>
<path d="M800 280 c0 -73 3 -90 15 -90 10 0 15 11 15 35 0 33 2 35 34 35 42 0
66 22 66 59 0 39 -17 51 -77 51 l-53 0 0 -90z m95 35 c0 -15 -8 -21 -32 -23
-30 -3 -33 -1 -33 23 0 24 3 26 33 23 24 -2 32 -8 32 -23z"/>
<path d="M970 280 l0 -91 68 3 c77 3 86 21 15 28 -40 4 -49 9 -51 28 -3 20 0
22 48 22 65 0 64 23 -1 30 -31 4 -45 10 -47 23 -3 14 4 17 47 17 39 0 51 4 51
15 0 12 -14 15 -65 15 l-65 0 0 -90z"/>
<path d="M1140 280 c0 -81 2 -90 19 -90 15 0 18 7 15 35 -4 58 26 58 64 0 12
-19 29 -35 37 -35 20 0 19 9 -6 49 -18 31 -19 35 -5 43 21 12 21 74 0 82 -9 3
-40 6 -70 6 l-54 0 0 -90z m110 45 c0 -20 -40 -35 -62 -23 -33 17 -21 38 22
38 29 0 40 -4 40 -15z"/>
<path d="M1310 355 c0 -9 9 -15 25 -15 23 0 24 -3 27 -72 2 -60 6 -73 21 -76
15 -3 17 6 17 72 0 74 1 76 25 76 16 0 25 6 25 15 0 12 -14 15 -70 15 -56 0
-70 -3 -70 -15z"/>
<path d="M1480 280 c0 -73 3 -90 15 -90 12 0 15 17 15 90 0 73 -3 90 -15 90
-12 0 -15 -17 -15 -90z"/>
<path d="M1550 280 l0 -90 70 0 c54 0 70 3 70 14 0 11 -15 16 -52 18 -46 3
-53 6 -56 25 -3 20 2 22 45 25 61 4 63 21 3 28 -32 4 -46 10 -48 23 -3 14 4
17 47 17 39 0 51 4 51 15 0 12 -14 15 -65 15 l-65 0 0 -90z"/>
<path d="M2030 280 l0 -90 65 0 c51 0 65 3 65 15 0 11 -12 15 -45 15 l-45 0 0
75 c0 68 -2 75 -20 75 -19 0 -20 -7 -20 -90z"/>
<path d="M2190 280 c0 -73 3 -90 15 -90 12 0 15 17 15 90 0 73 -3 90 -15 90
-12 0 -15 -17 -15 -90z"/>
<path d="M2260 280 c0 -73 3 -90 15 -90 12 0 15 14 15 62 0 71 8 70 25 -4 9
-41 16 -53 30 -53 15 0 23 13 35 60 l15 60 3 -62 c2 -47 7 -63 17 -63 12 0 15
18 15 90 0 89 0 90 -25 90 -21 0 -27 -7 -41 -56 -18 -63 -29 -59 -40 14 -6 38
-9 42 -35 42 l-29 0 0 -90z"/>
<path d="M2470 280 c0 -82 2 -91 18 -88 15 3 17 15 17 88 0 73 -2 85 -17 88
-16 3 -18 -6 -18 -88z"/>
<path d="M2530 355 c0 -9 9 -15 25 -15 23 0 24 -3 27 -72 2 -60 6 -73 21 -76
15 -3 17 6 17 72 0 74 1 76 25 76 16 0 25 6 25 15 0 12 -14 15 -70 15 -56 0
-70 -3 -70 -15z"/>
<path d="M2700 280 l0 -90 65 0 c50 0 65 3 65 14 0 11 -14 16 -47 18 -41 3
-48 6 -51 26 -3 20 1 22 42 22 33 0 46 4 46 14 0 10 -14 16 -42 18 -31 2 -44
8 -46 21 -3 14 4 17 47 17 39 0 51 4 51 15 0 12 -14 15 -65 15 l-65 0 0 -90z"/>
<path d="M2870 280 l0 -90 50 0 c42 0 55 5 75 26 32 34 33 91 4 128 -18 22
-28 26 -75 26 l-54 0 0 -90z m104 44 c11 -29 6 -81 -8 -94 -8 -6 -25 -10 -38
-8 -21 3 -23 9 -26 61 l-3 57 34 0 c23 0 37 -6 41 -16z"/>
</g>
</svg>
