<?xml version="1.0" standalone="no"?>
<!DOCTYPE svg PUBLIC "-//W3C//DTD SVG 20010904//EN"
 "http://www.w3.org/TR/2001/REC-SVG-20010904/DTD/svg10.dtd">
<svg version="1.0" xmlns="http://www.w3.org/2000/svg"
 width="327.000000pt" height="257.000000pt" viewBox="0 0 327.000000 257.000000"
 preserveAspectRatio="xMidYMid meet">

<g transform="translate(0.000000,257.000000) scale(0.100000,-0.100000)"
fill="#000000" stroke="none">
<path d="M1455 2544 c-87 -11 -176 -29 -225 -44 -293 -94 -528 -326 -618 -610
-40 -128 -47 -173 -46 -320 0 -159 18 -250 74 -383 167 -391 598 -635 1013
-572 172 26 334 90 452 180 25 19 49 35 53 35 5 0 161 -150 346 -332 186 -183
346 -337 355 -341 45 -22 104 39 85 88 -5 14 -159 175 -343 360 l-333 335 36
47 c86 113 150 262 176 404 17 91 14 291 -5 381 -76 371 -360 663 -726 747
-84 19 -238 32 -294 25z m235 -158 c420 -75 710 -471 660 -903 -22 -198 -99
-354 -244 -498 -138 -136 -271 -200 -478 -230 -53 -7 -110 -12 -125 -10 -226
30 -323 64 -460 162 -120 85 -234 231 -285 365 -26 70 -58 234 -58 303 0 80
34 244 68 322 94 222 267 380 512 467 102 36 279 45 410 22z"/>
</g>
</svg>
