<?xml version="1.0" standalone="no"?>
<!DOCTYPE svg PUBLIC "-//W3C//DTD SVG 20010904//EN"
 "http://www.w3.org/TR/2001/REC-SVG-20010904/DTD/svg10.dtd">
<svg version="1.0" xmlns="http://www.w3.org/2000/svg"
 width="612.000000pt" height="534.000000pt" viewBox="0 0 612.000000 534.000000"
 preserveAspectRatio="xMidYMid meet">

<g transform="translate(0.000000,534.000000) scale(0.100000,-0.100000)"
fill="#000000" stroke="none">
<path d="M4320 5330 c-535 -75 -960 -358 -1224 -815 -218 -379 -266 -876 -125
-1300 181 -544 642 -954 1207 -1076 123 -26 408 -37 535 -20 528 70 987 392
1231 861 63 123 108 244 143 390 21 88 26 137 30 305 4 171 2 217 -15 320 -54
318 -202 610 -426 842 -241 251 -526 407 -863 473 -122 24 -386 35 -493 20z
m410 -386 c439 -78 812 -400 954 -824 52 -156 69 -276 63 -445 -22 -576 -423
-1048 -997 -1171 -117 -25 -362 -25 -480 -1 -255 54 -455 161 -636 342 -105
104 -177 201 -236 320 -320 638 -39 1413 614 1697 221 95 475 124 718 82z"/>
<path d="M4439 4561 c-21 -17 -24 -29 -27 -103 l-4 -84 -51 -18 c-107 -36
-186 -106 -230 -204 -31 -69 -30 -199 2 -262 52 -100 140 -166 328 -245 173
-72 234 -139 218 -236 -13 -75 -110 -139 -209 -139 -45 0 -145 26 -221 56 -66
27 -67 27 -92 8 -30 -22 -65 -106 -61 -143 5 -41 79 -71 281 -115 27 -6 27 -7
27 -85 0 -108 14 -126 100 -126 87 0 100 18 100 131 l0 83 42 12 c109 29 209
112 254 212 23 51 28 76 28 142 0 119 -22 175 -103 256 -67 67 -83 76 -319
185 -54 24 -95 51 -119 77 -33 37 -35 43 -31 89 9 88 69 128 193 128 55 0 97
-7 151 -25 88 -30 106 -31 127 -7 29 32 59 124 49 147 -11 23 -93 53 -204 75
l-58 11 0 80 c0 66 -3 82 -20 99 -28 28 -118 28 -151 1z"/>
<path d="M2595 1934 c-111 -12 -410 -54 -684 -96 -48 -7 -82 -18 -98 -32 l-25
-22 -51 -791 c-41 -630 -49 -797 -39 -817 18 -41 53 -33 135 29 39 31 100 69
133 86 92 46 149 47 334 10 491 -98 1299 -228 1720 -277 80 -10 208 -18 285
-18 139 -1 140 -1 240 37 286 110 815 397 1190 646 209 138 290 212 347 316
30 54 33 68 33 140 0 66 -4 86 -23 118 -35 55 -103 92 -174 92 -50 0 -71 -8
-175 -62 -337 -174 -700 -302 -1093 -384 -312 -65 -697 -45 -1045 56 -178 52
-311 134 -303 187 3 21 7 23 53 20 28 -1 122 -15 210 -31 291 -54 391 -65 575
-65 133 0 192 4 244 17 185 46 287 166 255 299 -19 82 -55 109 -194 153 -66
20 -217 67 -335 105 -386 123 -673 204 -880 249 -246 54 -387 61 -635 35z"/>
<path d="M275 1886 c-36 -16 -95 -80 -95 -104 -1 -9 -41 -372 -89 -807 -85
-759 -88 -791 -72 -825 9 -19 27 -40 41 -47 19 -10 156 -13 573 -13 601 0 594
-1 637 60 22 31 25 64 83 814 57 746 59 783 43 817 -33 70 -29 69 -535 95
-532 27 -547 27 -586 10z m536 -1082 c67 -20 148 -97 167 -160 63 -213 -119
-395 -332 -332 -65 20 -140 100 -161 171 -33 115 13 234 114 294 76 45 127 52
212 27z"/>
</g>
</svg>
