<?xml version="1.0" standalone="no"?>
<!DOCTYPE svg PUBLIC "-//W3C//DTD SVG 20010904//EN"
 "http://www.w3.org/TR/2001/REC-SVG-20010904/DTD/svg10.dtd">
<svg version="1.0" xmlns="http://www.w3.org/2000/svg"
 width="253.000000pt" height="232.000000pt" viewBox="0 0 273.000000 252.000000"
 preserveAspectRatio="xMidYMid meet">

<g transform="translate(0.000000,252.000000) scale(0.100000,-0.100000)"
fill="#000000" stroke="none">
<path d="M1477 2355 c-21 -7 -45 -19 -54 -26 -9 -8 -78 -141 -153 -295 -121
-248 -141 -282 -165 -288 -14 -4 -86 -15 -158 -26 -268 -38 -413 -61 -432 -66
-31 -10 -63 -44 -75 -81 -23 -68 -13 -83 230 -328 l228 -230 -8 -50 c-5 -27
-23 -131 -40 -230 -49 -283 -50 -287 -50 -338 0 -64 45 -115 107 -124 39 -5
59 4 316 141 151 80 280 146 287 146 7 0 63 -26 124 -59 61 -32 170 -89 241
-126 72 -38 146 -76 165 -87 47 -25 88 -23 132 7 65 44 65 57 6 414 l-52 314
222 217 c122 119 226 229 232 244 25 66 2 129 -59 161 -15 7 -74 21 -132 29
-189 27 -444 66 -472 72 -25 5 -39 29 -139 232 -60 125 -120 250 -133 277 -41
89 -99 124 -168 100z"/>
</g>
</svg>
