<?xml version="1.0" standalone="no"?>
<!DOCTYPE svg PUBLIC "-//W3C//DTD SVG 20010904//EN"
 "http://www.w3.org/TR/2001/REC-SVG-20010904/DTD/svg10.dtd">
<svg version="1.0" xmlns="http://www.w3.org/2000/svg"
 width="257.000000pt" height="202.000000pt" viewBox="0 0 287.000000 222.000000"
 preserveAspectRatio="xMidYMid meet">

<g transform="translate(0.000000,222.000000) scale(0.100000,-0.100000)"
fill="#000000" stroke="none">
<path d="M1390 2191 c-32 -17 -49 -47 -177 -312 -79 -162 -144 -298 -146 -302
-2 -8 -99 -24 -372 -63 -129 -18 -273 -42 -298 -50 -9 -3 -24 -19 -33 -36 -31
-61 -21 -76 233 -330 l236 -236 -22 -134 c-12 -73 -30 -182 -41 -243 -49 -286
-49 -278 -35 -312 14 -32 59 -63 92 -63 10 0 110 50 223 111 113 60 246 130
295 155 l90 46 290 -156 c160 -86 298 -156 308 -156 26 0 75 27 87 49 14 27
13 82 -5 176 -18 96 -38 214 -66 394 l-21 134 241 241 c258 259 260 261 226
326 -8 16 -23 31 -32 34 -23 7 -164 31 -268 46 -134 18 -349 51 -373 56 -22 4
-104 161 -299 572 -28 59 -82 81 -133 53z m103 -278 c31 -65 90 -188 131 -274
49 -102 83 -161 100 -172 26 -17 83 -28 414 -76 106 -15 195 -31 199 -34 3 -4
-91 -102 -210 -219 -180 -177 -217 -219 -222 -248 -4 -22 9 -125 35 -275 56
-325 58 -339 55 -344 -2 -1 -122 59 -267 135 -195 103 -272 138 -298 138 -25
0 -107 -38 -295 -137 -302 -159 -280 -161 -246 25 78 427 80 442 60 481 -6 12
-106 117 -222 234 -236 237 -226 214 -92 232 310 43 477 72 500 87 25 16 90
142 240 462 26 56 51 102 55 102 3 0 31 -53 63 -117z"/>
</g>
</svg>
