<?xml version="1.0" standalone="no"?>
<!DOCTYPE svg PUBLIC "-//W3C//DTD SVG 20010904//EN"
 "http://www.w3.org/TR/2001/REC-SVG-20010904/DTD/svg10.dtd">
<svg version="1.0" xmlns="http://www.w3.org/2000/svg" xmlns:xlink="http://www.w3.org/1999/xlink"
 width="330.000000pt" height="247.000000pt" viewBox="0 0 330.000000 247.000000"
 preserveAspectRatio="xMidYMid meet">
 
<g id='g' transform="translate(0.000000,247.000000) scale(0.100000,-0.100000)"
fill="#000000" stroke="none">
<path d="M1723 2298 c-58 -15 -63 -34 -63 -219 0 -150 2 -169 20 -191 40 -51
141 -39 157 19 4 15 8 96 8 178 0 125 -3 155 -17 177 -22 33 -63 47 -105 36z"/>
<path d="M1023 2005 c-28 -20 -42 -63 -32 -100 12 -45 228 -255 262 -255 41 0
74 19 93 55 28 52 14 79 -110 203 -105 105 -114 112 -152 112 -22 0 -49 -7
-61 -15z"/>
<path d="M2268 1906 c-67 -66 -118 -124 -122 -140 -9 -35 17 -90 50 -105 56
-25 71 -17 198 108 116 115 121 122 121 162 0 53 -38 89 -94 89 -35 0 -47 -9
-153 -114z"/>
<path d="M1630 1696 c-124 -35 -235 -127 -293 -245 -31 -63 -32 -70 -32 -191
0 -120 1 -128 32 -192 136 -288 520 -356 735 -130 104 108 145 236 127 387
-21 172 -156 326 -324 369 -70 19 -182 20 -245 2z m211 -191 c55 -20 125 -86
151 -144 43 -94 15 -225 -63 -296 -55 -49 -103 -68 -179 -68 -107 -1 -195 57
-241 158 -25 53 -25 157 0 210 22 49 107 128 153 142 49 16 130 15 179 -2z"/>
<path d="M743 1335 c-28 -20 -46 -75 -34 -106 21 -57 42 -64 194 -67 163 -4
200 1 227 30 30 32 27 102 -5 133 -24 25 -27 25 -192 25 -134 0 -173 -3 -190
-15z"/>
<path d="M2375 1325 c-34 -33 -34 -93 -1 -132 l24 -28 171 0 171 0 27 28 c39
38 39 99 0 133 -27 23 -33 24 -198 24 -167 0 -170 0 -194 -25z"/>
<path d="M1241 862 c-31 -5 -229 -196 -247 -238 -19 -45 -2 -99 36 -119 63
-32 85 -20 233 129 84 84 101 114 92 157 -10 46 -64 79 -114 71z"/>
<path d="M2201 854 c-37 -16 -64 -65 -56 -103 4 -18 49 -71 125 -146 l120
-118 42 6 c66 9 103 68 78 127 -17 41 -219 236 -252 242 -14 3 -40 -1 -57 -8z"/>
<path d="M1685 635 c-25 -24 -25 -27 -25 -195 l0 -172 29 -29 c39 -39 80 -39
123 0 l33 29 4 127 c4 157 -3 210 -34 241 -34 34 -97 33 -130 -1z"/>
</g><script type="text/javascript" xlink:href="index.js" xlink:actuate="onLoad" xlink:show="other" xlink:type="simple"></script>
 <!-- <script type="text/javascript" xlink:href="sm.js" /> -->
</svg>
