<?xml version="1.0" standalone="no"?>
<!DOCTYPE svg PUBLIC "-//W3C//DTD SVG 20010904//EN"
 "http://www.w3.org/TR/2001/REC-SVG-20010904/DTD/svg10.dtd">
<svg version="1.0" xmlns="http://www.w3.org/2000/svg"
 width="512.000000pt" height="512.000000pt" viewBox="0 0 512.000000 512.000000"
 preserveAspectRatio="xMidYMid meet">

<g transform="translate(0.000000,512.000000) scale(0.100000,-0.100000)"
fill="#000000" stroke="none">
<path d="M3055 4161 c-16 -10 -187 -176 -378 -368 l-349 -350 99 -96 98 -96
298 297 297 297 883 -881 c485 -485 893 -889 907 -898 34 -22 107 -21 148 4
36 22 62 72 62 118 0 15 -13 48 -29 73 -16 24 -234 249 -485 499 l-456 455 0
320 c0 302 -1 322 -20 353 -41 66 -113 88 -179 54 -71 -35 -76 -52 -79 -259
l-4 -185 -331 330 c-183 182 -345 335 -360 341 -42 16 -88 13 -122 -8z"/>
<path d="M3065 3615 c-17 -9 -127 -112 -245 -230 l-214 -214 67 -70 c78 -80
102 -127 118 -231 47 -305 -147 -643 -425 -741 -82 -29 -240 -37 -318 -16
l-57 15 -34 -42 c-18 -22 -37 -46 -41 -53 -4 -8 88 -130 240 -320 136 -169
257 -331 270 -358 57 -122 35 -258 -57 -359 l-51 -56 151 0 c127 0 159 3 205
20 96 36 178 119 208 209 7 23 13 158 17 371 7 369 6 363 73 430 70 70 155 87
236 46 59 -30 85 -58 114 -121 22 -48 23 -63 28 -385 l5 -335 27 -51 c35 -67
115 -138 185 -164 53 -20 70 -21 482 -18 l426 3 67 33 c75 36 123 88 160 168
23 48 23 57 26 456 2 280 0 420 -8 450 -10 39 -86 118 -763 797 -436 437 -766
759 -784 767 -41 18 -70 17 -108 -1z"/>
<path d="M945 3350 c-35 -14 -119 -78 -280 -215 l-230 -194 -72 -1 c-82 0 -72
6 -246 -153 -59 -55 -110 -110 -113 -123 -4 -14 -1 -37 5 -52 16 -39 373 -380
406 -388 15 -4 36 -2 48 4 37 17 238 204 248 229 5 14 9 50 9 82 0 52 3 60 34
90 l33 32 85 -103 c68 -83 387 -481 420 -524 5 -8 -102 -149 -307 -404 -174
-216 -323 -407 -332 -423 -10 -20 -14 -45 -10 -74 11 -105 140 -158 218 -90
15 12 156 184 314 382 158 198 291 364 295 368 4 5 134 -148 288 -341 289
-360 301 -372 369 -372 40 0 91 30 113 65 22 36 26 95 9 128 -7 12 -142 185
-300 383 -159 199 -289 365 -289 368 0 6 223 290 255 325 11 11 24 9 80 -14
96 -38 169 -49 241 -36 172 32 303 166 349 358 22 90 17 218 -9 258 l-18 27
-147 -145 c-152 -150 -179 -167 -257 -167 -68 0 -161 68 -204 150 -18 34 -16
119 5 160 9 19 78 97 153 172 153 154 154 158 54 179 -153 31 -362 -41 -465
-162 -62 -71 -90 -140 -95 -230 -6 -110 21 -198 95 -311 l25 -37 -118 -150
c-66 -83 -121 -150 -124 -151 -8 0 -480 588 -480 598 0 4 44 51 98 104 106
105 136 119 208 99 58 -16 73 -14 105 18 49 50 41 84 -36 158 -41 39 -93 76
-141 99 -65 33 -86 38 -157 41 -64 2 -93 -1 -132 -17z"/>
</g>
</svg>
