<?xml version="1.0" standalone="no"?>
<!DOCTYPE svg PUBLIC "-//W3C//DTD SVG 20010904//EN"
 "http://www.w3.org/TR/2001/REC-SVG-20010904/DTD/svg10.dtd">
<svg version="1.0" xmlns="http://www.w3.org/2000/svg"
 width="503.000000pt" height="503.000000pt" viewBox="0 0 503.000000 503.000000"
 preserveAspectRatio="xMidYMid meet">

<g transform="translate(0.000000,503.000000) scale(0.100000,-0.100000)"
fill="#000000" stroke="none">
<path d="M2094 4390 c-12 -4 -31 -21 -43 -36 -21 -26 -21 -35 -21 -366 0 -368
2 -382 55 -406 14 -7 48 -12 75 -12 39 0 52 -4 60 -20 7 -13 10 -80 8 -185 -2
-91 0 -165 3 -165 4 0 77 81 163 179 86 99 164 182 172 185 9 3 164 6 345 6
l329 0 32 29 33 29 3 329 c4 365 0 392 -51 423 -31 19 -54 20 -587 19 -305 0
-565 -4 -576 -9z m990 -156 c21 -21 20 -41 -3 -54 -13 -6 -160 -10 -410 -10
-341 0 -392 2 -405 16 -9 8 -16 19 -16 24 0 5 7 16 16 24 13 14 65 16 409 16
344 0 396 -2 409 -16z m-3 -214 c23 -13 24 -33 3 -54 -13 -14 -65 -16 -409
-16 -344 0 -396 2 -409 16 -9 8 -16 19 -16 24 0 5 7 16 16 24 13 14 64 16 405
16 250 0 397 -4 410 -10z m10 -246 c9 -11 10 -20 2 -32 -9 -15 -48 -17 -418
-17 -370 0 -409 2 -418 17 -8 12 -7 21 2 32 12 14 61 16 416 16 355 0 404 -2
416 -16z"/>
<path d="M1409 3766 c-133 -47 -250 -149 -289 -254 -29 -76 -35 -147 -21 -261
11 -91 11 -94 -10 -109 -21 -14 -21 -21 -17 -131 5 -127 21 -175 62 -191 18
-7 26 -19 31 -52 11 -63 44 -147 78 -196 29 -44 29 -45 22 -140 -10 -140 -8
-136 -113 -156 -191 -35 -382 -103 -507 -181 -218 -136 -353 -368 -358 -617
-2 -83 -1 -88 26 -116 17 -17 45 -33 65 -37 21 -4 378 -4 794 0 l756 8 47 68
c128 187 312 307 591 385 71 19 135 38 142 40 23 7 -17 63 -118 164 -80 80
-111 104 -195 147 -128 66 -282 118 -424 142 -62 11 -115 22 -118 25 -3 3 -8
56 -10 118 l-5 113 36 55 c36 54 61 120 72 192 5 28 12 38 31 43 37 9 54 63
60 190 6 107 5 113 -16 127 -21 15 -21 17 -9 132 18 181 -12 287 -110 385
-118 118 -332 164 -493 107z m355 -353 c88 -43 90 -47 116 -198 9 -58 23 -112
29 -118 7 -7 26 -12 44 -12 l32 0 -3 -79 c-5 -104 -14 -128 -47 -120 -28 7
-28 7 -43 -86 -13 -87 -46 -169 -82 -210 -34 -38 -36 -59 -20 -218 5 -60 16
-109 31 -138 20 -43 21 -55 15 -163 -3 -64 -15 -156 -26 -206 -23 -105 -85
-294 -104 -321 -13 -17 -14 -16 -20 12 -10 48 -46 360 -46 398 0 19 5 38 10
41 6 3 10 21 10 40 0 48 -37 75 -102 75 -82 0 -118 -55 -84 -126 12 -25 11
-52 -10 -219 -35 -279 -35 -279 -84 -152 -62 162 -101 339 -107 485 -5 117 -4
135 12 152 17 18 23 57 41 232 6 63 5 69 -20 99 -15 17 -34 45 -43 62 -21 42
-53 155 -53 192 0 42 -13 59 -38 51 -30 -10 -39 15 -44 114 l-3 85 31 3 c41 4
73 38 129 142 47 85 84 133 118 151 9 6 53 14 97 19 44 5 99 18 122 29 24 10
49 20 55 20 7 1 46 -16 87 -36z"/>
<path d="M3041 3284 c-127 -34 -254 -133 -305 -236 -40 -83 -50 -154 -36 -275
12 -101 11 -105 -9 -124 -17 -16 -21 -32 -21 -88 0 -132 29 -231 69 -231 15 0
21 -13 30 -62 14 -71 50 -157 86 -204 23 -31 24 -36 15 -106 -15 -117 -14
-128 14 -128 26 0 36 21 36 76 0 88 10 99 109 124 102 26 318 3 349 -37 6 -9
12 -40 12 -67 0 -75 9 -98 34 -94 20 3 21 7 17 105 -3 96 -2 103 23 135 33 44
55 97 76 181 13 53 21 71 41 80 34 18 47 51 59 155 11 101 7 137 -21 167 -16
18 -17 28 -8 95 6 41 9 112 7 157 -12 230 -206 395 -461 392 -34 0 -86 -7
-116 -15z"/>
<path d="M3967 2448 c-9 -7 -96 -147 -193 -312 -175 -297 -183 -315 -138 -316
6 0 24 -3 40 -6 29 -5 31 -2 179 250 83 141 154 256 159 256 20 0 76 -43 76
-60 0 -26 472 -304 503 -296 14 3 39 -5 70 -25 41 -25 46 -32 37 -49 -5 -10
-80 -137 -166 -282 l-156 -263 24 -49 24 -49 191 324 c210 355 218 371 210
392 -3 8 -34 32 -69 52 -35 21 -79 52 -98 70 -44 39 -460 285 -484 285 -9 0
-52 20 -95 45 -86 49 -90 51 -114 33z"/>
<path d="M2865 1789 c-123 -5 -170 -12 -261 -38 -228 -63 -377 -142 -500 -265
-135 -135 -193 -268 -215 -492 -6 -63 -10 -166 -8 -229 4 -114 4 -115 37 -147
l32 -33 883 -2 c485 -2 1027 0 1204 5 l323 7 27 28 28 28 0 237 0 237 -31 86
c-40 112 -106 210 -203 301 -90 84 -152 123 -281 179 -166 72 -246 90 -435 99
-193 10 -382 10 -600 -1z"/>
</g>
</svg>
